<svg xmlns="http://www.w3.org/2000/svg" version="1.1" xmlns:xlink="http://www.w3.org/1999/xlink" xmlns:svgjs="http://svgjs.dev/svgjs" width="1500" height="215" viewBox="0 0 1500 215"><g transform="matrix(1,0,0,1,-0.9090909090909918,15.148874677801729)"><svg viewBox="0 0 396 57" data-background-color="#398378" preserveAspectRatio="xMidYMid meet" height="215" width="1500" xmlns="http://www.w3.org/2000/svg" xmlns:xlink="http://www.w3.org/1999/xlink"><g id="tight-bounds" transform="matrix(1,0,0,1,0.2400000000000091,0.08228710653756366)"><svg viewBox="0 0 395.52 56.83542578692488" height="56.83542578692488" width="395.52"><g><svg viewBox="0 0 523.8351951168756 75.27406036772983" height="56.83542578692488" width="395.52"><g><rect width="4.911933753105771" height="54.73981958724202" x="408.3784653222664" y="10.267120390243907" fill="#ffffff" opacity="1" stroke-width="0" stroke="transparent" fill-opacity="1" class="rect-yte-0" data-fill-palette-color="primary" rx="1%" id="yte-0" data-palette-color="#ffffff"></rect></g><g transform="matrix(1,0,0,1,0,10.403289095684805)"><svg viewBox="0 0 395.52 54.46748217636022" height="54.46748217636022" width="395.52"><g id="textblocktransform"><svg viewBox="0 0 395.52 54.46748217636022" height="54.46748217636022" width="395.52" id="textblock"><g><svg viewBox="0 0 395.52 54.46748217636022" height="54.46748217636022" width="395.52"><g transform="matrix(1,0,0,1,0,0)"><svg width="395.52" viewBox="2 -33.55 283.46999999999997 36.699999999999996" height="54.46748217636022" data-palette-color="#ffffff"><g class="wordmark-text-0" data-fill-palette-color="primary" id="text-0"><path d="M2.95 0.35L2.95 0.35 2.45 0.35Q2 0.35 2 0L2 0Q2-0.1 2.02-0.3 2.05-0.5 2.1-0.8L2.1-0.8Q2.7-4.2 4.13-7.45 5.55-10.7 7.15-13.5L7.15-13.5Q6.5-13.5 6-13.48 5.5-13.45 4.65-13.45L4.65-13.45Q4.15-13.45 4.15-13.8L4.15-13.8Q4.15-14.15 4.58-14.58 5-15 5.5-15L5.5-15 8-15Q9.65-17.7 11.7-20.53 13.75-23.35 15.95-26.1 18.15-28.85 20.3-31.2L20.3-31.2Q20-31.6 20-32L20-32Q20-32.4 20.48-32.98 20.95-33.55 22.2-33.55L22.2-33.55Q22.8-33.55 23.08-33.23 23.35-32.9 23.35-32.5L23.35-32.5Q23.35-32.2 23.2-31.8L23.2-31.8Q23.6-30.75 24.18-28.8 24.75-26.85 25.33-24.48 25.9-22.1 26.38-19.63 26.85-17.15 27.15-15.05L27.15-15.05Q28.8-15 28.8-14.5L28.8-14.5Q28.8-14 27.3-13.75L27.3-13.75Q27.25-13.75 27.4-12.7 27.55-11.65 27.8-10.03 28.05-8.4 28.28-6.63 28.5-4.85 28.68-3.38 28.85-1.9 28.85-1.15L28.85-1.15Q28.85-0.65 28.1-0.23 27.35 0.2 26.75 0.2L26.75 0.2Q26.15 0.2 26.15-0.2L26.15-0.2 26.15-0.8Q26.15-1.85 26.03-3.73 25.9-5.6 25.73-7.65 25.55-9.7 25.4-11.35 25.25-13 25.15-13.65L25.15-13.65Q21.35-13.6 17.18-13.55 13-13.5 9.15-13.5L9.15-13.5Q7.45-10.45 5.95-7.05 4.45-3.65 3.95-0.2L3.95-0.2Q3.9 0.15 3.6 0.25 3.3 0.35 2.95 0.35ZM9.85-14.9L9.85-14.9 25-15Q24.7-17.35 24.18-19.78 23.65-22.2 23.1-24.38 22.55-26.55 22.1-28.13 21.65-29.7 21.45-30.25L21.45-30.25Q19.55-28.25 17.35-25.6 15.15-22.95 13.18-20.15 11.2-17.35 9.85-14.9ZM32.75 0.3L32.75 0.3Q31.8 0.3 31.8-0.6L31.8-0.6Q31.8-1.1 32-1.65L32-1.65Q33.45-5.6 34.57-9.22 35.7-12.85 36.8-16.5 37.9-20.15 39.15-24.15L39.15-24.15Q39.25-24.5 39.27-24.7 39.3-24.9 39.3-25.05L39.3-25.05Q39.3-25.3 39.22-25.43 39.15-25.55 39.15-25.75L39.15-25.75Q39.15-25.9 39.3-26.35L39.3-26.35Q40.3-29.45 41.12-30.53 41.95-31.6 43.65-31.6L43.65-31.6Q44.35-31.6 44.4-31.15L44.4-31.15Q43.05-28.35 41.62-24.8 40.2-21.25 38.85-17.45 37.5-13.65 36.4-9.98 35.3-6.3 34.6-3.25L34.6-3.25Q34.55-3.1 34.55-2.85L34.55-2.85Q34.55-2.25 35.05-2.25L35.05-2.25Q35.4-2.25 36.05-2.63 36.7-3 37.35-3.38 38-3.75 38.35-3.75L38.35-3.75Q38.65-3.75 38.8-3.55L38.8-3.55Q38.8-3.25 38.07-2.63 37.35-2 36.3-1.33 35.25-0.65 34.27-0.18 33.3 0.3 32.75 0.3ZM41.7 0.3L41.7 0.3Q40.75 0.3 40.75-0.6L40.75-0.6Q40.75-1.1 40.95-1.65L40.95-1.65Q42.4-5.6 43.52-9.22 44.65-12.85 45.75-16.5 46.85-20.15 48.1-24.15L48.1-24.15Q48.2-24.5 48.22-24.7 48.25-24.9 48.25-25.05L48.25-25.05Q48.25-25.3 48.17-25.43 48.1-25.55 48.1-25.75L48.1-25.75Q48.1-25.9 48.25-26.35L48.25-26.35Q49.25-29.45 50.07-30.53 50.9-31.6 52.6-31.6L52.6-31.6Q53.3-31.6 53.35-31.15L53.35-31.15Q52-28.35 50.57-24.8 49.15-21.25 47.8-17.45 46.45-13.65 45.35-9.98 44.25-6.3 43.55-3.25L43.55-3.25Q43.5-3.1 43.5-2.85L43.5-2.85Q43.5-2.25 44-2.25L44-2.25Q44.35-2.25 45-2.63 45.65-3 46.3-3.38 46.95-3.75 47.3-3.75L47.3-3.75Q47.6-3.75 47.75-3.55L47.75-3.55Q47.75-3.25 47.02-2.63 46.3-2 45.25-1.33 44.2-0.65 43.22-0.18 42.25 0.3 41.7 0.3Z" fill="#ffffff" data-fill-palette-color="primary"></path><path d="M67.55 0L67.55 0Q67.25 0 66.97-0.1 66.7-0.2 66.7-0.5L66.7-0.5Q66.7-0.75 67-1.35 67.3-1.95 67.62-2.55 67.95-3.15 68.1-3.45L68.1-3.45Q68.85-5.05 69.72-7.68 70.6-10.3 70.6-13.05L70.6-13.05Q70.6-13.3 70.6-13.48 70.6-13.65 70.55-13.8L70.55-13.8Q69.15-17.5 67.85-21.25 66.55-25 65.2-29.2L65.2-29.2Q65-29.75 64.92-30.28 64.85-30.8 64.85-31.15L64.85-31.15Q64.85-32.15 65.65-32.43 66.45-32.7 67.1-32.7L67.1-32.7Q67.6-32.7 68.4-32.52 69.2-32.35 69.2-32L69.2-32Q69.2-31.75 68.9-31.53 68.6-31.3 68.65-31.3L68.65-31.3Q68-31.15 68-29.9L68-29.9Q68-28.65 68.52-26.68 69.05-24.7 69.82-22.55 70.6-20.4 71.37-18.5 72.15-16.6 72.6-15.45L72.6-15.45Q73.05-15.85 74.4-17.07 75.75-18.3 77.5-20.08 79.25-21.85 81-23.85 82.75-25.85 84.07-27.78 85.4-29.7 85.75-31.25L85.75-31.25Q86-32.2 86.37-32.77 86.75-33.35 87.6-33.35L87.6-33.35Q87.95-33.35 88.35-33.18 88.75-33 88.75-32.35L88.75-32.35Q88.75-31.7 87.92-30.4 87.1-29.1 85.87-27.58 84.65-26.05 83.5-24.65L83.5-24.65Q81-21.6 78.45-19.15 75.9-16.7 73.2-14.2L73.2-14.2Q72.9-13.25 72.52-11.65 72.15-10.05 71.9-8.4 71.65-6.75 71.55-5.65L71.55-5.65Q71.45-4 71.17-2.73 70.9-1.45 70.1-0.73 69.3 0 67.55 0ZM91.5 0.95L91.5 0.95Q90.25 0.95 89.42-0.08 88.6-1.1 88.6-3.25L88.6-3.25Q88.6-3.75 88.65-4.33 88.7-4.9 88.8-5.55L88.8-5.55Q88.95-6.4 89.42-8.03 89.9-9.65 90.65-11.55 91.4-13.45 92.37-15.18 93.35-16.9 94.52-18 95.7-19.1 97.05-19.1L97.05-19.1 97.4-19.1Q97.4-19.75 97.8-20.28 98.2-20.8 98.9-20.8L98.9-20.8Q99.45-20.75 99.7-19.88 99.95-19 100.12-17.88 100.3-16.75 100.65-15.88 101-15 101.75-14.9L101.75-14.9Q102.7-14.75 102.7-14.35L102.7-14.35Q102.7-13.95 101.75-13.45L101.75-13.45Q101.4-13.3 101.1-13.25 100.8-13.2 100.6-13.2L100.6-13.2Q100.6-10.05 99.7-7.45 98.8-4.85 97.37-2.98 95.95-1.1 94.4-0.08 92.85 0.95 91.5 0.95ZM92.25-0.55L92.25-0.55Q93.15-0.55 94.32-1.58 95.5-2.6 96.6-4.42 97.7-6.25 98.45-8.6 99.2-10.95 99.2-13.6L99.2-13.6Q98.8-13.85 98.42-14.65 98.05-15.45 97.75-16.18 97.45-16.9 97.2-16.9L97.2-16.9Q96.5-16.9 95.7-15.93 94.9-14.95 94.15-13.48 93.4-12 92.75-10.35 92.1-8.7 91.65-7.28 91.2-5.85 91.05-5.1L91.05-5.1Q90.95-4.45 90.9-3.93 90.85-3.4 90.85-3L90.85-3Q90.85-0.55 92.25-0.55ZM109.09 3.15L109.09 3.15Q108.44 3.15 108.44 2.6L108.44 2.6Q108.44 2.1 109.19 1.58 109.94 1.05 110.29 0.25L110.29 0.25Q110.44-0.15 110.89-1.68 111.34-3.2 111.92-5.18 112.49-7.15 112.97-8.95 113.44-10.75 113.69-11.7L113.69-11.7Q113.14-10.85 112.02-9.38 110.89-7.9 109.49-6.23 108.09-4.55 106.62-3.03 105.14-1.5 103.84-0.53 102.54 0.45 101.64 0.45L101.64 0.45Q100.94 0.45 100.94-0.45L100.94-0.45Q100.94-1.2 101.49-2.6L101.49-2.6Q101.79-3.3 102.42-4.65 103.04-6 103.72-7.58 104.39-9.15 104.87-10.53 105.34-11.9 105.34-12.65L105.34-12.65Q105.34-13 105.24-13.13 105.14-13.25 105.14-13.5L105.14-13.5Q105.14-13.6 105.17-13.73 105.19-13.85 105.24-14.05L105.24-14.05Q105.79-16.1 106.27-17.25 106.74-18.4 107.44-18.85 108.14-19.3 109.34-19.3L109.34-19.3Q110.04-19.3 110.19-18.85L110.19-18.85Q109.99-18.35 109.34-16.78 108.69-15.2 107.82-13.08 106.94-10.95 106.12-8.88 105.29-6.8 104.74-5.28 104.19-3.75 104.19-3.4L104.19-3.4Q104.19-3.2 104.34-3.2L104.34-3.2Q104.54-3.2 104.87-3.45 105.19-3.7 105.54-4L105.54-4Q108.49-6.25 110.64-9.08 112.79-11.9 114.34-14.8L114.34-14.8Q114.39-15.55 114.72-16.7 115.04-17.85 115.84-18.75 116.64-19.65 117.94-19.65L117.94-19.65Q118.49-19.65 118.54-19.2L118.54-19.2Q118.29-18.4 117.52-16.35 116.74-14.3 115.89-11.9L115.89-11.9Q115.49-10.7 114.99-9.08 114.49-7.45 114.02-5.8 113.54-4.15 113.24-2.9 112.94-1.65 112.94-1.25L112.94-1.25Q112.94-1.1 113.04-1.1L113.04-1.1Q113.49-1.15 114.27-1.75 115.04-2.35 115.89-2.98 116.74-3.6 117.29-3.6L117.29-3.6Q117.39-3.6 117.54-3.55 117.69-3.5 117.69-3.35L117.69-3.35Q117.69-3.05 116.99-2.5 116.29-1.95 115.32-1.35 114.34-0.75 113.52-0.25 112.69 0.25 112.39 0.45L112.39 0.45Q111.89 0.85 111.32 1.5 110.74 2.15 110.19 2.65 109.64 3.15 109.09 3.15Z" fill="#ffffff" data-fill-palette-color="primary"></path><path d="M145.94 0.65L145.94 0.65Q141.19 0.65 137.96-1.15 134.74-2.95 133.11-6.23 131.49-9.5 131.49-13.85L131.49-13.85Q131.49-17.7 132.74-21.15 133.99-24.6 136.41-27.28 138.84-29.95 142.39-31.5 145.94-33.05 150.54-33.05L150.54-33.05Q151.99-33.05 153.54-32.83 155.09-32.6 156.39-31.98 157.69-31.35 158.49-30.13 159.29-28.9 159.29-26.95L159.29-26.95Q159.29-25.4 158.71-24.63 158.14-23.85 157.29-23.85L157.29-23.85Q156.24-23.85 156.24-24.8L156.24-24.8Q156.24-25.65 156.74-26.4 157.24-27.15 157.24-27.8L157.24-27.8Q157.24-29.05 156.21-29.93 155.19-30.8 153.66-31.3 152.14-31.8 150.64-31.8L150.64-31.8Q146.74-31.8 143.64-30.28 140.54-28.75 138.39-26.18 136.24-23.6 135.09-20.38 133.94-17.15 133.94-13.7L133.94-13.7Q133.94-10.25 135.19-7.25 136.44-4.25 139.01-2.38 141.59-0.5 145.49-0.5L145.49-0.5Q148.94-0.5 151.54-1.43 154.14-2.35 155.96-3.68 157.79-5 158.89-6.28 159.99-7.55 160.49-8.25L160.49-8.25Q160.74-8.5 160.84-8.5L160.84-8.5Q161.09-8.5 161.09-7.75L161.09-7.75Q161.09-6.1 160.06-4.78 159.04-3.45 157.34-2.43 155.64-1.4 153.61-0.73 151.59-0.05 149.59 0.3 147.59 0.65 145.94 0.65ZM164.24 0.15L164.24 0.15Q163.04 0.15 163.04-1.65L163.04-1.65Q163.04-3.05 163.59-5.13 164.14-7.2 165.04-9.45 165.94-11.7 167.01-13.68 168.09-15.65 169.21-16.9 170.34-18.15 171.29-18.15L171.29-18.15 171.44-18.15 171.99-18.55Q172.24-18.85 172.61-18.95 172.99-19.05 173.39-19.05L173.39-19.05Q174.39-19.05 175.49-18.65 176.59-18.25 176.99-18.25L176.99-18.25Q177.34-18.25 177.51-18.65 177.69-19.05 178.29-19.05L178.29-19.05Q178.99-19.05 179.26-18.75 179.54-18.45 179.54-17.95L179.54-17.95Q179.54-17.25 179.14-16.32 178.74-15.4 178.49-14.8L178.49-14.8Q178.44-14.6 178.04-14.48 177.64-14.35 177.54-14.15L177.54-14.15Q176.74-11.85 176.09-9.47 175.44-7.1 175.09-5.35 174.74-3.6 174.74-3.2L174.74-3.2Q174.74-1.95 175.44-1.95L175.44-1.95Q176.04-1.95 176.74-2.48 177.44-3 178.11-3.65 178.79-4.3 179.24-4.83 179.69-5.35 179.74-5.35L179.74-5.35Q179.84-5.35 179.84-5.15L179.84-5.15Q179.84-4.95 179.69-4.55 179.54-4.15 179.34-4L179.34-4Q178.84-3.55 177.79-2.63 176.74-1.7 175.54-0.9 174.34-0.1 173.44-0.1L173.44-0.1Q172.39-0.1 172.19-1.35L172.19-1.35Q172.19-2.25 172.49-3.68 172.79-5.1 173.16-6.6 173.54-8.1 173.84-9.1L173.84-9.1Q173.09-8.1 171.91-6.55 170.74-5 169.36-3.48 167.99-1.95 166.64-0.9 165.29 0.15 164.24 0.15ZM165.84-2.2L165.84-2.2Q166.34-2.2 167.16-2.88 167.99-3.55 168.96-4.6 169.94-5.65 170.81-6.7 171.69-7.75 172.31-8.58 172.94-9.4 173.09-9.6L173.09-9.6Q173.89-10.9 174.66-12.43 175.44-13.95 175.94-15.23 176.44-16.5 176.44-17L176.44-17Q176.44-17.3 176.19-17.3L176.19-17.3 176.04-17.3Q175.54-17.3 175.01-17.4 174.49-17.5 173.79-17.5L173.79-17.5Q173.09-17.5 172.29-17.3L172.29-17.3Q171.84-17.2 171.01-16.07 170.19-14.95 169.21-13.25 168.24-11.55 167.36-9.63 166.49-7.7 165.91-5.95 165.34-4.2 165.34-3.05L165.34-3.05Q165.34-2.2 165.84-2.2ZM189.58 1.7L189.58 1.7Q188.88 1.7 188.51 1.23 188.13 0.75 188.13-0.45L188.13-0.45Q188.13-2.1 188.71-4.15 189.28-6.2 190.11-8.35 190.93-10.5 191.78-12.45 192.63-14.4 193.13-15.75L193.13-15.75Q193.38-16.4 193.38-16.75L193.38-16.75Q193.38-17 193.23-17L193.23-17Q192.98-17 192.13-16.1L192.13-16.1Q191.43-15.3 190.21-13.73 188.98-12.15 187.58-10.18 186.18-8.2 184.88-6.28 183.58-4.35 182.76-2.85 181.93-1.35 181.88-0.75L181.88-0.75Q181.88-0.55 181.43-0.15 180.98 0.25 180.41 0.55 179.83 0.85 179.43 0.85L179.43 0.85Q179.08 0.85 179.03 0.5L179.03 0.5Q179.08 0.55 179.48-0.48 179.88-1.5 180.46-3.15 181.03-4.8 181.63-6.58 182.23-8.35 182.73-9.83 183.23-11.3 183.43-11.95L183.43-11.95Q183.63-12.55 183.63-12.85L183.63-12.85Q183.63-13.1 183.56-13.2 183.48-13.3 183.48-13.5L183.48-13.5Q183.48-13.7 183.63-14.15L183.63-14.15Q184.38-16.2 184.93-17.35 185.48-18.5 186.18-18.95 186.88-19.4 188.03-19.4L188.03-19.4Q188.73-19.4 188.78-18.95L188.78-18.95Q188.43-18.2 187.76-16.8 187.08-15.4 186.31-13.65 185.53-11.9 184.86-10.15 184.18-8.4 183.88-6.95L183.88-6.95Q184.48-7.95 185.56-9.58 186.63-11.2 188.01-13.05 189.38-14.9 190.86-16.53 192.33-18.15 193.81-19.2 195.28-20.25 196.53-20.25L196.53-20.25Q196.93-20.25 197.23-20.13 197.53-20 197.53-19.6L197.53-19.6Q197.53-19.15 197.18-18.6L197.18-18.6Q195.98-16.65 194.76-14.15 193.53-11.65 192.51-9.1 191.48-6.55 190.86-4.3 190.23-2.05 190.23-0.6L190.23-0.6Q190.23 0.3 190.63 0.3L190.63 0.3Q190.78 0.3 191.18 0.05 191.58-0.2 192.01-0.45 192.43-0.7 192.58-0.7L192.58-0.7Q192.88-0.7 192.88-0.4L192.88-0.4Q192.88 0 192.36 0.5 191.83 1 191.08 1.35 190.33 1.7 189.58 1.7Z" fill="#ffffff" data-fill-palette-color="primary"></path><path d="M224.93 0.65L224.93 0.65Q220.18 0.65 216.95-1.15 213.73-2.95 212.1-6.23 210.48-9.5 210.48-13.85L210.48-13.85Q210.48-17.7 211.73-21.15 212.98-24.6 215.4-27.28 217.83-29.95 221.38-31.5 224.93-33.05 229.53-33.05L229.53-33.05Q230.98-33.05 232.53-32.83 234.08-32.6 235.38-31.98 236.68-31.35 237.48-30.13 238.28-28.9 238.28-26.95L238.28-26.95Q238.28-25.4 237.7-24.63 237.13-23.85 236.28-23.85L236.28-23.85Q235.23-23.85 235.23-24.8L235.23-24.8Q235.23-25.65 235.73-26.4 236.23-27.15 236.23-27.8L236.23-27.8Q236.23-29.05 235.2-29.93 234.18-30.8 232.65-31.3 231.13-31.8 229.63-31.8L229.63-31.8Q225.73-31.8 222.63-30.28 219.53-28.75 217.38-26.18 215.23-23.6 214.08-20.38 212.93-17.15 212.93-13.7L212.93-13.7Q212.93-10.25 214.18-7.25 215.43-4.25 218-2.38 220.58-0.5 224.48-0.5L224.48-0.5Q227.93-0.5 230.53-1.43 233.13-2.35 234.95-3.68 236.78-5 237.88-6.28 238.98-7.55 239.48-8.25L239.48-8.25Q239.73-8.5 239.83-8.5L239.83-8.5Q240.08-8.5 240.08-7.75L240.08-7.75Q240.08-6.1 239.05-4.78 238.03-3.45 236.33-2.43 234.63-1.4 232.6-0.73 230.58-0.05 228.58 0.3 226.58 0.65 224.93 0.65ZM245.68 0.95L245.68 0.95Q244.43 0.95 243.6-0.08 242.78-1.1 242.78-3.25L242.78-3.25Q242.78-3.75 242.83-4.33 242.88-4.9 242.98-5.55L242.98-5.55Q243.13-6.4 243.6-8.03 244.08-9.65 244.83-11.55 245.58-13.45 246.55-15.18 247.53-16.9 248.7-18 249.88-19.1 251.23-19.1L251.23-19.1 251.58-19.1Q251.58-19.75 251.98-20.28 252.38-20.8 253.08-20.8L253.08-20.8Q253.63-20.75 253.88-19.88 254.13-19 254.3-17.88 254.48-16.75 254.83-15.88 255.18-15 255.93-14.9L255.93-14.9Q256.88-14.75 256.88-14.35L256.88-14.35Q256.88-13.95 255.93-13.45L255.93-13.45Q255.58-13.3 255.28-13.25 254.98-13.2 254.78-13.2L254.78-13.2Q254.78-10.05 253.88-7.45 252.98-4.85 251.55-2.98 250.13-1.1 248.58-0.08 247.03 0.95 245.68 0.95ZM246.43-0.55L246.43-0.55Q247.33-0.55 248.5-1.58 249.68-2.6 250.78-4.42 251.88-6.25 252.63-8.6 253.38-10.95 253.38-13.6L253.38-13.6Q252.98-13.85 252.6-14.65 252.23-15.45 251.93-16.18 251.63-16.9 251.38-16.9L251.38-16.9Q250.68-16.9 249.88-15.93 249.08-14.95 248.33-13.48 247.58-12 246.93-10.35 246.28-8.7 245.83-7.28 245.38-5.85 245.23-5.1L245.23-5.1Q245.13-4.45 245.08-3.93 245.03-3.4 245.03-3L245.03-3Q245.03-0.55 246.43-0.55ZM258.72 0.95L258.72 0.95Q257.47 0.95 256.65-0.08 255.82-1.1 255.82-3.25L255.82-3.25Q255.82-3.75 255.87-4.33 255.92-4.9 256.02-5.55L256.02-5.55Q256.17-6.4 256.65-8.03 257.12-9.65 257.87-11.55 258.62-13.45 259.6-15.18 260.57-16.9 261.75-18 262.92-19.1 264.27-19.1L264.27-19.1 264.62-19.1Q264.62-19.75 265.02-20.28 265.42-20.8 266.12-20.8L266.12-20.8Q266.67-20.75 266.92-19.88 267.17-19 267.35-17.88 267.52-16.75 267.87-15.88 268.22-15 268.97-14.9L268.97-14.9Q269.92-14.75 269.92-14.35L269.92-14.35Q269.92-13.95 268.97-13.45L268.97-13.45Q268.62-13.3 268.32-13.25 268.02-13.2 267.82-13.2L267.82-13.2Q267.82-10.05 266.92-7.45 266.02-4.85 264.6-2.98 263.17-1.1 261.62-0.08 260.07 0.95 258.72 0.95ZM259.47-0.55L259.47-0.55Q260.37-0.55 261.55-1.58 262.72-2.6 263.82-4.42 264.92-6.25 265.67-8.6 266.42-10.95 266.42-13.6L266.42-13.6Q266.02-13.85 265.65-14.65 265.27-15.45 264.97-16.18 264.67-16.9 264.42-16.9L264.42-16.9Q263.72-16.9 262.92-15.93 262.12-14.95 261.37-13.48 260.62-12 259.97-10.35 259.32-8.7 258.87-7.28 258.42-5.85 258.27-5.1L258.27-5.1Q258.17-4.45 258.12-3.93 258.07-3.4 258.07-3L258.07-3Q258.07-0.55 259.47-0.55ZM268.12 1.05L268.12 1.05Q267.77 1.05 267.77 0.6L267.77 0.6Q267.77 0.4 268.02-0.35L268.02-0.35Q270.37-6.25 272.2-12.2 274.02-18.15 276.02-24.15L276.02-24.15Q276.22-24.75 276.22-25.05L276.22-25.05Q276.22-25.3 276.15-25.4 276.07-25.5 276.07-25.7L276.07-25.7Q276.07-25.9 276.22-26.35L276.22-26.35Q276.97-28.4 277.52-29.55 278.07-30.7 278.8-31.15 279.52-31.6 280.62-31.6L280.62-31.6Q281.32-31.6 281.37-31.15L281.37-31.15Q279.52-27.4 278.05-24.05 276.57-20.7 275.4-17.25 274.22-13.8 273.17-9.7L273.17-9.7Q273.17-9.7 274.12-10.53 275.07-11.35 276.45-12.58 277.82-13.8 279.27-15.08 280.72-16.35 281.8-17.3 282.87-18.25 283.12-18.45L283.12-18.45Q283.82-19 284.37-19.23 284.92-19.45 285.17-19.45L285.17-19.45Q285.47-19.45 285.47-19.25L285.47-19.25Q285.47-18.7 284.12-17.65L284.12-17.65Q282.42-16.65 280.87-15.33 279.32-14 278.1-12.68 276.87-11.35 276.17-10.3 275.47-9.25 275.47-8.85L275.47-8.85Q275.47-7.85 275.95-6.63 276.42-5.4 277.12-4.17 277.82-2.95 278.55-2 279.27-1.05 279.77-0.65L279.77-0.65Q280.72 0.15 280.72 0.65L280.72 0.65Q280.72 0.95 280.27 0.95L280.27 0.95Q279.42 0.95 278.47 0.1 277.52-0.75 276.6-2 275.67-3.25 274.9-4.6 274.12-5.95 273.55-6.98 272.97-8 272.77-8.35L272.77-8.35Q272.62-7.95 272.27-6.88 271.92-5.8 271.52-4.55 271.12-3.3 270.82-2.25 270.52-1.2 270.52-0.85L270.52-0.85Q270.52-0.65 270.07-0.18 269.62 0.3 269.07 0.68 268.52 1.05 268.12 1.05Z" fill="#ffffff" data-fill-palette-color="primary"></path></g></svg></g></svg></g></svg></g></svg></g><g transform="matrix(1,0,0,1,426.14886439763853,0)"><svg viewBox="0 0 97.686330719237 75.27406036772983" height="75.27406036772983" width="97.686330719237"><g><svg xmlns="http://www.w3.org/2000/svg" xmlns:xlink="http://www.w3.org/1999/xlink" version="1.1" x="0" y="0" viewBox="14.392999890875652 20.945977511931517 92.21500010912435 71.05802248806849" enable-background="new 0 0 120 120" xml:space="preserve" height="75.27406036772983" width="97.686330719237" class="icon-icon-0" data-fill-palette-color="accent" id="icon-0"><path d="M30.602 67.798V76.492C39.25 80.388 49.602 82.496 60.499 82.496 72.852 82.496 84.505 79.79 93.767 74.837V66.24C101.35 62.795 106.608 55.304 106.608 46.613 106.608 34.657 96.664 24.966 84.396 24.966 81.165 24.966 78.097 25.644 75.327 26.854A21.86 21.86 0 0 0 60.353 20.946 21.86 21.86 0 0 0 45.549 26.693 21.9 21.9 0 0 0 36.34 24.667C24.218 24.667 14.393 34.493 14.393 46.614 14.392 56.75 21.264 65.275 30.602 67.798" fill="#ffffff" data-fill-palette-color="accent"></path><path d="M60.5 87.458C49.749 87.458 39.456 85.509 30.603 81.888V85.389C30.603 89.042 36.27 92.004 43.262 92.004H81.108C88.101 92.004 93.768 89.043 93.768 85.389V80.397C84.208 84.976 72.645 87.458 60.5 87.458" fill="#ffffff" data-fill-palette-color="accent"></path></svg></g></svg></g></svg></g><defs></defs></svg><rect width="395.52" height="56.83542578692488" fill="none" stroke="none" visibility="hidden"></rect></g></svg></g></svg>